<?xml version="1.0" encoding="utf-8"?>
<!-- Generator: Adobe Illustrator 24.0.2, SVG Export Plug-In . SVG Version: 6.00 Build 0)  -->
<svg version="1.1" id="Capa_1" xmlns="http://www.w3.org/2000/svg" xmlns:xlink="http://www.w3.org/1999/xlink" x="0px" y="0px"
	 viewBox="0 0 400 400" style="enable-background:new 0 0 400 400;" xml:space="preserve">
<g>
	<path d="M286.6,152.2c-8.9-15.3-21.1-27.5-36.4-36.4s-32.1-13.4-50.2-13.4s-34.9,4.5-50.2,13.4s-27.5,21.1-36.4,36.4
		s-13.4,32.1-13.4,50.2c0,21.8,6.4,41.4,19.1,58.9c12.7,17.4,29.2,29.5,49.4,36.2c2.4,0.4,4.1,0.1,5.2-0.9s1.7-2.4,1.7-3.9
		c0-0.3,0-2.6-0.1-7c-0.1-4.4-0.1-8.3-0.1-11.6l-3,0.5c-1.9,0.4-4.3,0.5-7.3,0.4c-2.9-0.1-5.9-0.4-9.1-0.9c-3.1-0.6-6.1-1.9-8.8-3.9
		c-2.7-2.1-4.6-4.7-5.8-8l-1.3-3c-0.9-2-2.3-4.2-4.1-6.6s-3.8-4.1-5.7-4.9l-0.9-0.6c-0.6-0.4-1.2-0.9-1.7-1.6
		c-0.5-0.6-0.9-1.2-1.2-1.8s-0.1-1.1,0.6-1.5s1.9-0.6,3.8-0.6l2.6,0.4c1.8,0.4,3.9,1.4,6.4,3.1s4.7,4,6.3,6.8c2,3.6,4.4,6.3,7.3,8.1
		c2.8,1.9,5.7,2.8,8.5,2.8c2.9,0,5.3-0.2,7.4-0.6c2.1-0.4,4.1-1.1,5.9-1.9c0.8-5.8,2.9-10.3,6.4-13.4c-4.9-0.5-9.4-1.3-13.4-2.4
		c-3.9-1.1-8-2.8-12.3-5.1c-4.2-2.3-7.7-5.3-10.5-8.8c-2.8-3.5-5.1-8-6.8-13.7c-1.8-5.6-2.7-12.1-2.7-19.5
		c0-10.5,3.4-19.5,10.3-26.8c-3.2-7.9-2.9-16.8,0.9-26.6c2.5-0.8,6.3-0.2,11.2,1.8c4.9,1.9,8.6,3.6,10.9,5c2.3,1.4,4.1,2.6,5.6,3.5
		c8.1-2.3,16.5-3.4,25-3.4c8.6,0,17,1.1,25,3.4l4.9-3.1c3.4-2.1,7.4-4,12-5.8c4.6-1.8,8.1-2.2,10.6-1.4c3.9,9.8,4.3,18.7,1.1,26.6
		c6.9,7.4,10.3,16.3,10.3,26.8c0,7.4-0.9,14-2.7,19.6c-1.8,5.7-4.1,10.3-6.9,13.7c-2.8,3.4-6.3,6.3-10.6,8.7
		c-4.2,2.4-8.3,4.1-12.3,5.1c-3.9,1.1-8.4,1.8-13.4,2.4c4.5,3.9,6.8,10.1,6.8,18.5v27.5c0,1.6,0.6,2.9,1.6,3.9
		c1.1,1.1,2.8,1.4,5.1,0.9c20.1-6.7,36.6-18.8,49.4-36.2c12.7-17.4,19.1-37,19.1-58.9C300,184.3,295.5,167.6,286.6,152.2z"/>
</g>
</svg>
