<?xml version="1.0" encoding="utf-8"?>
<!-- Generator: Adobe Illustrator 24.0.2, SVG Export Plug-In . SVG Version: 6.00 Build 0)  -->
<svg version="1.1" id="Layer_1" xmlns="http://www.w3.org/2000/svg" xmlns:xlink="http://www.w3.org/1999/xlink" x="0px" y="0px"
	 viewBox="0 0 400 400" style="enable-background:new 0 0 400 400;" xml:space="preserve">
<path d="M300.3,158.8c-0.5-10.6-2.2-17.9-4.6-24.3c-2.5-6.7-6.4-12.7-11.6-17.7c-5-5.1-11.1-9-17.7-11.5c-6.4-2.5-13.6-4.2-24.3-4.6
	c-10.7-0.5-14.1-0.6-41.3-0.6s-30.6,0.1-41.2,0.6c-10.6,0.5-17.9,2.2-24.3,4.6c-6.7,2.5-12.7,6.4-17.7,11.6c-5.1,5-9,11.1-11.5,17.7
	c-2.5,6.4-4.2,13.6-4.6,24.3c-0.5,10.7-0.6,14.1-0.6,41.3s0.1,30.6,0.6,41.2c0.5,10.6,2.2,17.9,4.7,24.3c2.5,6.7,6.5,12.7,11.6,17.7
	c5,5.1,11.1,9,17.7,11.5c6.4,2.5,13.6,4.2,24.3,4.6c10.7,0.5,14.1,0.6,41.2,0.6s30.6-0.1,41.2-0.6c10.6-0.5,17.9-2.2,24.3-4.6
	c13.4-5.2,24.1-15.8,29.3-29.3c2.5-6.4,4.2-13.6,4.6-24.3c0.5-10.7,0.6-14.1,0.6-41.2S300.8,169.5,300.3,158.8z M282.3,240.5
	c-0.4,9.8-2.1,15-3.4,18.6c-3.4,8.7-10.3,15.6-19,19c-3.5,1.4-8.8,3-18.6,3.4c-10.6,0.5-13.7,0.6-40.4,0.6s-29.9-0.1-40.4-0.6
	c-9.8-0.4-15-2.1-18.6-3.4c-4.3-1.6-8.3-4.1-11.5-7.5c-3.3-3.2-5.9-7.2-7.5-11.5c-1.4-3.5-3-8.8-3.4-18.6
	c-0.5-10.6-0.6-13.7-0.6-40.4s0.1-29.9,0.6-40.4c0.4-9.8,2.1-15,3.4-18.6c1.6-4.3,4.1-8.3,7.5-11.5c3.2-3.3,7.1-5.9,11.5-7.5
	c3.5-1.4,8.8-3,18.6-3.4c10.6-0.5,13.7-0.6,40.4-0.6c26.7,0,29.9,0.1,40.4,0.6c9.8,0.4,15,2.1,18.6,3.4c4.3,1.6,8.3,4.1,11.5,7.5
	c3.3,3.2,5.9,7.2,7.5,11.5c1.4,3.5,3,8.8,3.4,18.6c0.5,10.6,0.6,13.7,0.6,40.4S282.8,229.9,282.3,240.5z"/>
<path d="M200.9,148.6c-28.4,0-51.4,23-51.4,51.4s23,51.4,51.4,51.4c28.4,0,51.4-23,51.4-51.4S229.3,148.6,200.9,148.6z M200.9,233.4
	c-18.4,0-33.3-14.9-33.3-33.3s14.9-33.3,33.3-33.3c18.4,0,33.3,14.9,33.3,33.3S219.3,233.4,200.9,233.4z"/>
<path d="M266.3,146.6c0,6.6-5.4,12-12,12c-6.6,0-12-5.4-12-12c0-6.6,5.4-12,12-12C260.9,134.6,266.3,140,266.3,146.6z"/>
</svg>
