<?xml version="1.0" encoding="utf-8"?>
<!-- Generator: Adobe Illustrator 24.0.2, SVG Export Plug-In . SVG Version: 6.00 Build 0)  -->
<svg version="1.1" id="Capa_1" xmlns="http://www.w3.org/2000/svg" xmlns:xlink="http://www.w3.org/1999/xlink" x="0px" y="0px"
	 viewBox="0 0 400 400" style="enable-background:new 0 0 400 400;" xml:space="preserve">
<g>
	<g>
		<path d="M300,138c-7.4,3.3-15.4,5.4-23.6,6.5c8.5-5.1,15-13.1,18.1-22.7c-7.9,4.8-16.7,8.1-26,9.9c-7.5-8-18.3-13-29.9-13
			c-22.7,0-41,18.4-41,41c0,3.3,0.3,6.4,0.9,9.4c-34.1-1.7-64.3-18-84.5-42.9c-3.6,6.1-5.6,13.2-5.6,20.8c0,14.2,7.3,26.8,18.2,34.1
			c-6.6-0.1-13.1-2.1-18.5-5.1c0,0.1,0,0.3,0,0.4c0,19.9,14.2,36.5,32.9,40.3c-3.3,0.9-7,1.4-10.8,1.4c-2.6,0-5.3-0.1-7.8-0.7
			c5.3,16.3,20.4,28.2,38.3,28.6c-13.9,10.9-31.7,17.5-50.8,17.5c-3.4,0-6.6-0.1-9.8-0.6c18.2,11.7,39.7,18.4,62.9,18.4
			c75.5,0,116.7-62.5,116.7-116.7c0-1.8-0.1-3.6-0.1-5.3C287.6,153.5,294.5,146.3,300,138z"/>
	</g>
</g>
</svg>
