<?xml version="1.0" encoding="utf-8"?>
<!-- Generator: Adobe Illustrator 24.0.2, SVG Export Plug-In . SVG Version: 6.00 Build 0)  -->
<svg version="1.1" id="Layer_1" xmlns="http://www.w3.org/2000/svg" xmlns:xlink="http://www.w3.org/1999/xlink" x="0px" y="0px"
	 viewBox="0 0 400 400" style="enable-background:new 0 0 400 400;" xml:space="preserve">
<style type="text/css">
	.st0{fill-rule:evenodd;clip-rule:evenodd;fill:#FFFFFF;}
</style>
<g id="XMLID_1_">
	<path id="XMLID_807_" class="st0" d="M272.1,215.4c6.6,6.5,13.6,12.6,19.6,19.7c2.6,3.2,5.1,6.4,7,10.1c2.7,5.2,0.2,11-4.4,11.3
		h-29.1c-7.5,0.6-13.5-2.4-18.6-7.6c-4.1-4.1-7.7-8.5-11.6-12.7c-1.6-1.7-3.2-3.4-5.2-4.7c-4-2.6-7.4-1.8-9.7,2.4
		c-2.3,4.2-2.8,8.9-3.1,13.6c-0.3,6.9-2.4,8.7-9.2,9c-14.7,0.7-28.7-1.6-41.7-8.9c-11.4-6.6-20.3-15.8-28.1-26.2
		c-15.1-20.4-26.6-42.8-36.9-65.8c-2.3-5.2-0.6-8,5.1-8.1c9.5-0.2,19-0.2,28.5,0c3.9,0.1,6.4,2.2,7.9,5.9
		c5.1,12.6,11.4,24.7,19.3,35.8c2.1,3,4.2,5.9,7.3,8c3.4,2.3,5.9,1.6,7.6-2.2c1-2.4,1.4-4.9,1.7-7.5c0.7-8.8,0.9-17.6-0.4-26.3
		c-0.8-5.5-3.9-9-9.4-10.1c-2.8-0.5-2.4-1.6-1-3.1c2.3-2.7,4.6-4.4,8.9-4.4h32.9c5.2,1,6.3,3.4,7.1,8.6v36.6c-0.1,2,1,8,4.6,9.4
		c2.9,0.9,4.8-1.4,6.6-3.2c7.9-8.4,13.5-18.2,18.6-28.5c2.2-4.5,4.1-9.2,6-13.9c1.4-3.4,3.6-5.2,7.4-5.1h31.7c0.9,0,1.9,0,2.8,0.2
		c5.3,0.9,6.8,3.2,5.1,8.4c-2.6,8.2-7.6,15-12.6,21.9c-5.3,7.3-10.9,14.4-16.2,21.7C265.7,206.2,266.1,209.6,272.1,215.4
		L272.1,215.4z"/>
</g>
</svg>
